<?xml version="1.0" encoding="UTF-8" standalone="no"?>
<!-- Uploaded to: SVG Repo, www.svgrepo.com, Generator: SVG Repo Mixer Tools -->

<svg
   fill="#000000"
   height="800px"
   width="800px"
   version="1.1"
   id="Capa_1"
   viewBox="0 0 427.113 427.113"
   xml:space="preserve"
   sodipodi:docname="enemyFast.svg"
   inkscape:export-filename="/data/towerDefence/client/public/enemyFast.png"
   inkscape:export-xdpi="4.1999998"
   inkscape:export-ydpi="4.1999998"
   inkscape:version="1.1.2 (0a00cf5339, 2022-02-04)"
   xmlns:inkscape="http://www.inkscape.org/namespaces/inkscape"
   xmlns:sodipodi="http://sodipodi.sourceforge.net/DTD/sodipodi-0.dtd"
   xmlns="http://www.w3.org/2000/svg"
   xmlns:svg="http://www.w3.org/2000/svg"><defs
   id="defs227" /><sodipodi:namedview
   id="namedview225"
   pagecolor="#ffffff"
   bordercolor="#666666"
   borderopacity="1.0"
   inkscape:pageshadow="2"
   inkscape:pageopacity="0.0"
   inkscape:pagecheckerboard="0"
   showgrid="false"
   inkscape:zoom="1.055"
   inkscape:cx="399.52607"
   inkscape:cy="400.47393"
   inkscape:window-width="1850"
   inkscape:window-height="1016"
   inkscape:window-x="70"
   inkscape:window-y="27"
   inkscape:window-maximized="1"
   inkscape:current-layer="Capa_1" />
<g
   id="g222"
   transform="matrix(-1,0,0,1,427.11114,0)">
	<path
   d="m 221.765,106.328 c -17.216,0 -31.222,14.006 -31.222,31.222 0,17.216 14.006,31.222 31.222,31.222 17.216,0 31.222,-14.006 31.222,-31.222 0,-17.216 -14.006,-31.222 -31.222,-31.222 z m 0,47.444 c -8.944,0 -16.222,-7.277 -16.222,-16.222 0,-8.945 7.277,-16.222 16.222,-16.222 8.945,0 16.222,7.277 16.222,16.222 0,8.945 -7.277,16.222 -16.222,16.222 z"
   id="path216" />
	<path
   d="m 385.774,359.964 -3.672,-3.545 v 0 C 358.637,333.77 345.179,302.076 345.179,269.464 V 236.75 c 0,-51.394 -23.033,-97.503 -59.312,-128.568 l 26.169,-37.057 c 2.252,-3.188 1.682,-7.572 -1.313,-10.077 -4.706,-3.939 -9.608,-7.589 -14.677,-10.951 l 1.852,-4.469 c 6.96,-16.812 -1.051,-36.155 -17.86,-43.119 -16.815,-6.96 -36.157,1.056 -43.118,17.87 l -2.115,5.106 c -3.341,-0.605 -6.703,-1.13 -10.093,-1.53 l -4.775,-0.563 c -3.962,-0.467 -7.593,2.247 -8.27,6.178 l -6.944,40.401 c -9.359,-1.61 -18.974,-2.46 -28.786,-2.46 h -28.034 c -60.024,0 -108.857,48.833 -108.857,108.857 0,4.142 3.357,7.5 7.5,7.5 h 121.892 v 19.752 c 0,64.354 36.108,120.428 89.125,149.042 v 46.458 h -29.148 c -6.136,0 -11.617,3.663 -13.965,9.331 -2.348,5.668 -1.062,12.134 3.277,16.473 1.461,1.461 3.369,2.19 5.278,2.19 1.917,0 3.836,-0.735 5.304,-2.203 2.929,-2.929 2.903,-7.69 -0.025,-10.619 -0.003,-0.051 0.04,-0.154 0.131,-0.171 h 36.648 c 5.068,0 9.834,1.974 13.418,5.558 l 1.245,1.245 c 1.465,1.464 3.385,2.197 5.304,2.197 1.919,0 3.839,-0.732 5.304,-2.197 2.929,-2.929 2.929,-7.678 0,-10.606 l -1.246,-1.246 c -4.611,-4.61 -10.314,-7.722 -16.524,-9.115 v -40.131 c 20.055,8.391 42.052,13.035 65.115,13.035 h 42.886 c 3.058,0 5.809,-1.856 6.954,-4.691 1.145,-2.835 0.455,-6.082 -1.745,-8.206 z M 250.78,26.119 c 3.797,-9.174 14.351,-13.546 23.52,-9.75 9.169,3.799 13.539,14.351 9.742,23.52 l -1.011,2.438 C 272.433,36.633 261.244,32.125 249.634,28.887 Z m -25.536,13.02 c 25.705,3.433 49.891,13.437 70.464,29.108 l -4.481,6.345 C 281.948,68.042 272.017,62.448 261.59,57.952 249.497,52.74 236.855,49.036 223.918,46.858 Z m -3.867,22.5 c 11.77,1.977 23.272,5.346 34.275,10.088 9.472,4.084 18.494,9.165 26.923,15.116 l -8.53,12.079 C 257.734,87.278 239.276,78.462 219.394,73.175 Z M 147.905,82.51 h 20.534 v 47.642 C 112.42,131.65 74.2,149.644 55.3,161.162 62.59,116.617 101.33,82.51 147.905,82.51 Z m -75.629,86.358 c 3.319,-1.735 7.015,-3.534 11.092,-5.329 17.995,-7.922 46.978,-17.273 85.071,-18.379 v 23.708 z m 111.403,43.295 c 21.811,1.382 42.697,8.583 60.815,21.066 20.254,13.955 35.588,33.479 44.348,56.463 l 25.31,66.376 C 242.98,345.129 187.696,285.361 183.679,212.163 Z m 154,145.697 c -2.296,0 -4.579,-0.06 -6.851,-0.16 l -27.969,-73.351 c -9.847,-25.836 -27.086,-47.784 -49.854,-63.471 -20.7,-14.263 -44.613,-22.388 -69.566,-23.75 L 183.44,82.69 c 81.581,3.922 146.739,71.524 146.739,154.06 v 32.713 c 0,32.366 11.791,63.926 32.705,88.396 h -25.205 z"
   id="path218" />
	<path
   d="m 217.297,131.526 c -2.616,1.936 -3.696,5.484 -2.591,8.548 1.065,2.956 3.92,4.971 7.063,4.971 3.482,0 6.531,-2.475 7.308,-5.851 1.526,-6.632 -6.329,-11.703 -11.78,-7.668 z"
   id="path220" />
</g>
</svg>
