<?xml version="1.0" encoding="UTF-8" standalone="no"?>
<!-- Uploaded to: SVG Repo, www.svgrepo.com, Generator: SVG Repo Mixer Tools -->

<svg
   fill="#000000"
   width="800px"
   height="800px"
   viewBox="0 0 32 32"
   version="1.1"
   id="svg672"
   sodipodi:docname="projectileOne.svg"
   inkscape:export-filename="/data/towerDefence/client/public/projectileOne.png"
   inkscape:export-xdpi="1.536"
   inkscape:export-ydpi="1.536"
   inkscape:version="1.1.2 (0a00cf5339, 2022-02-04)"
   xmlns:inkscape="http://www.inkscape.org/namespaces/inkscape"
   xmlns:sodipodi="http://sodipodi.sourceforge.net/DTD/sodipodi-0.dtd"
   xmlns="http://www.w3.org/2000/svg"
   xmlns:svg="http://www.w3.org/2000/svg">
  <defs
     id="defs676" />
  <sodipodi:namedview
     id="namedview674"
     pagecolor="#ffffff"
     bordercolor="#666666"
     borderopacity="1.0"
     inkscape:pageshadow="2"
     inkscape:pageopacity="0.0"
     inkscape:pagecheckerboard="0"
     showgrid="false"
     inkscape:zoom="1.055"
     inkscape:cx="185.30806"
     inkscape:cy="400.47393"
     inkscape:window-width="1850"
     inkscape:window-height="1016"
     inkscape:window-x="70"
     inkscape:window-y="27"
     inkscape:window-maximized="1"
     inkscape:current-layer="svg672" />
  <title
     id="title668">bowling</title>
  <path
     d="M16 3.5c-6.904 0-12.5 5.596-12.5 12.5 0 6.903 5.596 12.5 12.5 12.5 6.903 0 12.5-5.597 12.5-12.5 0-6.904-5.597-12.5-12.5-12.5zM14.166 13c-0.828 0-1.5-0.672-1.5-1.5 0-0.829 0.672-1.5 1.5-1.5 0.829 0 1.5 0.671 1.5 1.5 0 0.828-0.671 1.5-1.5 1.5zM16.666 8.167c0-0.829 0.672-1.5 1.5-1.5 0.829 0 1.5 0.671 1.5 1.5s-0.671 1.5-1.5 1.5c-0.828 0-1.5-0.672-1.5-1.5zM19.5 15.5c-1.104 0-2-0.896-2-2s0.896-2 2-2 2 0.896 2 2-0.896 2-2 2z"
     id="path670" />
</svg>
