<?xml version="1.0" encoding="UTF-8" standalone="no"?>
<!-- Uploaded to: SVG Repo, www.svgrepo.com, Generator: SVG Repo Mixer Tools -->

<svg
   fill="#000000"
   height="800px"
   width="800px"
   version="1.1"
   id="Capa_1"
   viewBox="0 0 426.111 426.111"
   xml:space="preserve"
   sodipodi:docname="towerTwo.svg"
   inkscape:version="1.1.2 (0a00cf5339, 2022-02-04)"
   inkscape:export-filename="/data/towerDefence/client/public/towerTwo.png"
   inkscape:export-xdpi="4.8000002"
   inkscape:export-ydpi="4.8000002"
   xmlns:inkscape="http://www.inkscape.org/namespaces/inkscape"
   xmlns:sodipodi="http://sodipodi.sourceforge.net/DTD/sodipodi-0.dtd"
   xmlns="http://www.w3.org/2000/svg"
   xmlns:svg="http://www.w3.org/2000/svg"><defs
   id="defs44" /><sodipodi:namedview
   id="namedview42"
   pagecolor="#ffffff"
   bordercolor="#666666"
   borderopacity="1.0"
   inkscape:pageshadow="2"
   inkscape:pageopacity="0.0"
   inkscape:pagecheckerboard="0"
   showgrid="false"
   inkscape:zoom="1.00875"
   inkscape:cx="358.36431"
   inkscape:cy="400"
   inkscape:window-width="1850"
   inkscape:window-height="1016"
   inkscape:window-x="70"
   inkscape:window-y="27"
   inkscape:window-maximized="1"
   inkscape:current-layer="Capa_1" />
<path
   d="M 0.92675193,70.923 29.159752,19.493 c 0.957,-1.744 2.567,-3.036 4.478,-3.592 1.909,-0.555 3.962,-0.33 5.706,0.626 L 235.33975,124.124 c 8.123,-8.055 20.894,-10.206 31.42,-4.426 10.525,5.778 15.568,17.707 13.133,28.884 l 13.305,7.304 2.506,-2.431 c 8.531,-8.276 21.263,-9.993 31.683,-4.274 l 17.24,9.464 c 3.631,1.994 4.958,6.553 2.965,10.184 -1.994,3.631 -6.553,4.959 -10.184,2.965 l -17.24,-9.465 c -4.273,-2.345 -9.422,-1.858 -13.158,1.139 l 25.301,13.89 c 9.621,5.281 14.52,15.862 13.074,26.137 4.78,1.562 9.267,4.098 13.114,7.569 15.313,13.814 36.644,36.884 51.298,68.338 17.997,38.626 21.121,79.361 9.287,121.072 -0.666,2.346 -2.429,4.221 -4.729,5.029 -9.593,3.37 -19.54,5.005 -29.423,5.005 -23.593,-10e-4 -46.804,-9.325 -63.828,-26.626 -9.3,-9.453 -9.203,-24.712 0.216,-34.017 21.956,-21.687 21.018,-36.828 18.505,-43.922 -5.756,-16.249 -13.628,-26.181 -26.754,-35.796 -5.184,6.548 -12.243,11.331 -20.425,13.713 -3.762,1.096 -7.595,1.638 -11.407,1.638 -6.739,0 -13.408,-1.696 -19.479,-5.029 -12.591,-6.912 -20.655,-20.126 -21.045,-34.483 l -0.48,-17.641 -67.176,-36.877 c -16.117,-8.848 -29.41,-22.31 -38.132,-38.425 L 3.8917519,81.109 c -3.63099997,-1.995 -4.958,-6.554 -2.96499997,-10.186 z M 38.698752,33.286 l -11.069,20.165 73.077998,40.118 23.804,-13.173 z m 220.841998,99.561 c -1.751,-0.961 -3.645,-1.417 -5.515,-1.417 -4.064,0 -8.01,2.157 -10.1,5.964 -3.052,5.559 -1.012,12.563 4.547,15.615 5.557,3.051 12.563,1.013 15.615,-4.546 3.051,-5.56 1.012,-12.565 -4.547,-15.616 z m 65.552,57.66 -29.403,-16.141 -3.661,3.552 c -1.457,1.414 -3.34,2.117 -5.222,2.117 -1.957,0 -3.913,-0.762 -5.383,-2.278 -2.884,-2.973 -2.813,-7.721 0.161,-10.605 l 0.349,-0.338 -9.26,-5.083 c -5.009,4.967 -11.781,7.692 -18.71,7.692 -4.307,0 -8.673,-1.051 -12.708,-3.266 -6.205,-3.406 -10.712,-9.025 -12.691,-15.821 -1.259,-4.322 -1.394,-8.791 -0.453,-13.069 l -88.047,-48.335 -23.804,13.173 38.927,21.369 145.716,79.996 c 5.836,3.203 12.707,3.569 18.85,1.004 3.46,-1.445 7.071,-2.309 10.706,-2.647 0.81,-4.413 -1.225,-9.046 -5.367,-11.32 z m 6.769,170.029 c -3.547,3.504 -3.576,9.257 -0.065,12.825 19.189,19.503 47.819,26.821 73.902,19.176 4.913,-18.893 6.455,-37.551 4.652,-55.847 l -57.001,-7.271 c -3.303,9.18 -9.851,19.622 -21.488,31.117 z m -76.153,-114.959 c 0.246,9.053 5.331,17.384 13.27,21.742 5.993,3.292 12.909,4.05 19.474,2.138 4.717,-1.374 8.841,-4.013 12.013,-7.611 -3.438,-2.082 -7.146,-4.227 -11.155,-6.486 l -6.395,8.225 c -1.479,1.901 -3.69,2.897 -5.926,2.897 -1.608,0 -3.229,-0.516 -4.598,-1.58 -3.27,-2.542 -3.86,-7.254 -1.317,-10.524 l 4.96,-6.38 c -0.928,-0.51 -1.856,-1.02 -2.81,-1.543 l -17.758,-9.749 z m -110.764,-106.21 c 7.062,16.487 19.609,30.32 35.332,38.95 l 100.168,54.989 c 40.966,22.49 61.529,33.778 73.519,67.627 1.37,3.868 2.303,8.468 2.211,13.724 l 51.851,6.615 c -2.46,-12.034 -6.402,-23.892 -11.827,-35.536 -13.591,-29.171 -33.468,-50.652 -47.75,-63.535 -6.194,-5.588 -15.188,-7.113 -22.916,-3.887 -10.381,4.336 -21.989,3.718 -31.85,-1.696 l -145.718,-79.994 c -1.113,-0.613 -1.969,-0.179 -2.489,0.293 -0.517,0.473 -1.032,1.28 -0.531,2.45 z m -14.466,-5.879 c 0.553,-1.794 1.418,-3.499 2.565,-5.056 L 20.410752,66.6 l -2.727,4.967 z"
   id="path39" />
</svg>
