<?xml version="1.0" encoding="UTF-8" standalone="no"?>
<!-- Uploaded to: SVG Repo, www.svgrepo.com, Generator: SVG Repo Mixer Tools -->

<svg
   fill="#000000"
   height="800px"
   width="800px"
   version="1.1"
   id="Layer_1"
   viewBox="0 0 512 512"
   xml:space="preserve"
   sodipodi:docname="cannon-svgrepo-com (1).svg"
   inkscape:version="1.1.2 (0a00cf5339, 2022-02-04)"
   xmlns:inkscape="http://www.inkscape.org/namespaces/inkscape"
   xmlns:sodipodi="http://sodipodi.sourceforge.net/DTD/sodipodi-0.dtd"
   xmlns="http://www.w3.org/2000/svg"
   xmlns:svg="http://www.w3.org/2000/svg"><defs
   id="defs86" /><sodipodi:namedview
   id="namedview84"
   pagecolor="#ffffff"
   bordercolor="#666666"
   borderopacity="1.0"
   inkscape:pageshadow="2"
   inkscape:pageopacity="0.0"
   inkscape:pagecheckerboard="0"
   showgrid="false"
   inkscape:zoom="1.00875"
   inkscape:cx="400"
   inkscape:cy="400"
   inkscape:window-width="1850"
   inkscape:window-height="1016"
   inkscape:window-x="70"
   inkscape:window-y="27"
   inkscape:window-maximized="1"
   inkscape:current-layer="Layer_1" />
<g
   id="g75"
   transform="matrix(-1,0,0,1,512,0)">
	<g
   id="g73">
		<path
   d="m 181.598,336.545 c -7.861,-13.616 -22.518,-22.074 -38.252,-22.074 -7.714,0 -15.336,2.046 -22.042,5.918 -10.21,5.895 -17.513,15.412 -20.564,26.801 -3.051,11.388 -1.485,23.283 4.409,33.492 7.861,13.615 22.517,22.074 38.252,22.074 7.713,0 15.336,-2.046 22.042,-5.918 21.077,-12.169 28.324,-39.215 16.155,-60.293 z m -31.342,33.99 c -2.125,1.227 -4.431,1.849 -6.856,1.849 -4.917,0 -9.496,-2.639 -11.949,-6.888 -1.839,-3.185 -2.326,-6.894 -1.375,-10.446 0.952,-3.551 3.229,-6.521 6.413,-8.359 2.125,-1.227 4.432,-1.85 6.856,-1.85 4.917,0 9.496,2.639 11.949,6.888 3.796,6.575 1.537,15.011 -5.038,18.806 z"
   id="path71" />
	</g>
</g>
<g
   id="g81"
   transform="matrix(-1,0,0,1,512,0)">
	<g
   id="g79">
		<path
   d="m 475.736,67.078 -104.979,60.61 10.54,18.255 -27.692,15.987 -10.54,-18.255 -129.539,74.789 -30.877,-53.479 -24.175,-41.871 -26.302,15.186 24.175,41.871 -100.15,57.822 30.877,53.479 L 0,341.745 36.264,404.557 62.717,389.284 c 1.617,4.246 3.578,8.42 5.921,12.478 15.37,26.621 44.031,43.16 74.801,43.16 15.07,0 29.967,-4.002 43.082,-11.573 41.209,-23.792 55.378,-76.673 31.586,-117.881 -2.324,-4.027 -4.959,-7.819 -7.853,-11.362 l 13.235,-7.641 25.005,43.309 26.302,-15.186 -25.005,-43.309 129.539,-74.789 -10.54,-18.255 27.692,-15.987 10.54,18.254 L 512,129.89 Z m -418.643,290.385 -9.712,5.607 -5.893,-10.208 17.024,-9.829 c -0.87,4.725 -1.352,9.553 -1.419,14.43 z m 114.44,-150.989 15.691,27.177 -64.436,37.202 -9.412,5.433 -15.691,-27.177 z m -0.197,200.572 c -8.503,4.909 -18.15,7.505 -27.896,7.505 -19.953,0 -38.536,-10.719 -48.498,-27.974 -4.253,-7.367 -6.625,-15.311 -7.283,-23.275 -0.017,-0.213 -0.039,-0.425 -0.055,-0.637 -0.06,-0.842 -0.104,-1.684 -0.126,-2.526 0,-0.014 0,-0.027 0,-0.042 -0.021,-0.851 -0.021,-1.702 -0.003,-2.551 0.002,-0.085 0.004,-0.171 0.006,-0.256 0.135,-5.333 1.029,-10.614 2.641,-15.672 0.011,-0.036 0.023,-0.072 0.034,-0.108 0.26,-0.81 0.539,-1.615 0.835,-2.414 0.011,-0.031 0.022,-0.063 0.034,-0.094 0.3,-0.802 0.619,-1.596 0.955,-2.383 0.055,-0.128 0.113,-0.254 0.169,-0.382 0.255,-0.586 0.522,-1.168 0.798,-1.746 0.134,-0.279 0.269,-0.558 0.407,-0.835 0.21,-0.421 0.427,-0.838 0.648,-1.254 0.272,-0.513 0.552,-1.023 0.84,-1.529 0.219,-0.385 0.437,-0.77 0.666,-1.15 0.266,-0.441 0.543,-0.876 0.821,-1.31 0.123,-0.193 0.247,-0.386 0.373,-0.578 0.303,-0.46 0.609,-0.916 0.925,-1.367 0.06,-0.086 0.122,-0.17 0.183,-0.255 1.07,-1.508 2.216,-2.965 3.435,-4.365 0.085,-0.098 0.171,-0.195 0.257,-0.294 1.17,-1.325 2.41,-2.596 3.71,-3.812 0.168,-0.157 0.334,-0.316 0.505,-0.472 0.359,-0.328 0.726,-0.651 1.095,-0.97 0.271,-0.234 0.546,-0.464 0.822,-0.693 0.323,-0.269 0.645,-0.541 0.975,-0.803 0.581,-0.461 1.173,-0.912 1.777,-1.352 0.24,-0.175 0.485,-0.343 0.728,-0.515 0.476,-0.335 0.956,-0.665 1.445,-0.988 0.227,-0.15 0.455,-0.3 0.684,-0.447 0.709,-0.453 1.425,-0.897 2.161,-1.322 l 0.009,-0.005 c 0.334,-0.192 0.673,-0.376 1.01,-0.562 0.204,-0.112 0.406,-0.229 0.611,-0.339 0.31,-0.165 0.625,-0.322 0.936,-0.481 0.233,-0.118 0.464,-0.242 0.698,-0.357 0.256,-0.127 0.515,-0.244 0.773,-0.365 0.296,-0.14 0.59,-0.284 0.888,-0.419 0.173,-0.078 0.349,-0.15 0.523,-0.227 0.386,-0.17 0.77,-0.341 1.16,-0.502 0.066,-0.027 0.133,-0.052 0.198,-0.079 6.684,-2.735 13.846,-4.163 21.065,-4.163 8.034,0 16.044,1.775 23.343,5.097 0.252,0.115 0.502,0.237 0.752,0.356 0.3,0.142 0.598,0.284 0.896,0.431 0.45,0.224 0.896,0.453 1.339,0.688 0.059,0.031 0.116,0.062 0.175,0.093 9.041,4.85 16.741,12.157 22.019,21.299 15.424,26.712 6.241,60.982 -20.463,76.401 z m 14.168,-123.722 c -0.452,-0.251 -0.913,-0.482 -1.369,-0.725 -0.092,-0.05 -0.184,-0.097 -0.275,-0.146 -0.73,-0.386 -1.461,-0.767 -2.201,-1.132 -0.545,-0.27 -1.096,-0.526 -1.647,-0.786 -0.434,-0.202 -0.867,-0.411 -1.304,-0.606 -0.963,-0.433 -1.936,-0.846 -2.915,-1.244 -0.099,-0.041 -0.199,-0.079 -0.299,-0.118 -1.062,-0.427 -2.132,-0.833 -3.211,-1.219 l 30.127,-17.394 5.893,10.208 z m 49.101,-28.349 -5.893,-10.208 103.236,-59.604 5.893,10.208 z m 183.532,-105.962 -5.893,-10.208 52.374,-30.239 5.893,10.208 z"
   id="path77" />
	</g>
</g>
</svg>
