<?xml version="1.0" encoding="UTF-8" standalone="no"?>
<!-- Uploaded to: SVG Repo, www.svgrepo.com, Generator: SVG Repo Mixer Tools -->

<svg
   fill="#000000"
   height="800px"
   width="800px"
   version="1.1"
   id="Capa_1"
   viewBox="0 0 433.011 433.011"
   xml:space="preserve"
   sodipodi:docname="tower1.svg"
   inkscape:version="1.1.2 (0a00cf5339, 2022-02-04)"
   xmlns:inkscape="http://www.inkscape.org/namespaces/inkscape"
   xmlns:sodipodi="http://sodipodi.sourceforge.net/DTD/sodipodi-0.dtd"
   xmlns="http://www.w3.org/2000/svg"
   xmlns:svg="http://www.w3.org/2000/svg"><defs
   id="defs65" /><sodipodi:namedview
   id="namedview63"
   pagecolor="#ffffff"
   bordercolor="#666666"
   borderopacity="1.0"
   inkscape:pageshadow="2"
   inkscape:pageopacity="0.0"
   inkscape:pagecheckerboard="0"
   showgrid="false"
   inkscape:zoom="1.00875"
   inkscape:cx="400"
   inkscape:cy="400"
   inkscape:window-width="1850"
   inkscape:window-height="1016"
   inkscape:window-x="70"
   inkscape:window-y="27"
   inkscape:window-maximized="1"
   inkscape:current-layer="Capa_1" />
<g
   id="g60"
   transform="matrix(-1,0,0,1,433.01092,0)">
	<path
   d="m 274,313.231 c 0,13.781 11.212,24.993 24.993,24.993 13.781,0 24.993,-11.211 24.993,-24.993 0,-13.782 -11.211,-24.993 -24.993,-24.993 -13.782,0 -24.993,11.212 -24.993,24.993 z m 34.986,0 c 0,5.51 -4.483,9.993 -9.993,9.993 -5.51,0 -9.993,-4.483 -9.993,-9.993 0,-5.51 4.483,-9.993 9.993,-9.993 5.51,0 9.993,4.483 9.993,9.993 z"
   id="path54" />
	<path
   d="m 68.77,324.428 c -0.17,-0.83 -0.42,-1.65 -0.74,-2.43 -0.33,-0.79 -0.73,-1.54 -1.2,-2.25 -0.24,-0.35 -0.49,-0.7 -0.76,-1.03 -0.27,-0.33 -0.56,-0.64 -0.86,-0.94 -0.3,-0.3 -0.62,-0.59 -0.95,-0.86 -0.32,-0.27 -0.67,-0.53 -1.02,-0.76 -0.71,-0.47 -1.46,-0.87 -2.25,-1.2 -0.78,-0.32 -1.6,-0.57 -2.43,-0.74 -0.42,-0.08 -0.84,-0.15 -1.26,-0.19 -0.85,-0.08 -1.71,-0.08 -2.56,0 -0.42,0.04 -0.84,0.11 -1.26,0.19 -0.83,0.17 -1.65,0.42 -2.43,0.74 -0.79,0.33 -1.54,0.73 -2.25,1.2 -0.35,0.23 -0.69,0.49 -1.02,0.76 -0.33,0.27 -0.65,0.56 -0.95,0.86 -2.42,2.41 -3.81,5.77 -3.81,9.19 0,0.42 0.02,0.85 0.07,1.28 0.04,0.42 0.1,0.84 0.19,1.26 0.16,0.83 0.41,1.65 0.74,2.43 0.32,0.78 0.72,1.54 1.19,2.24 0.24,0.36 0.49,0.7 0.76,1.03 0.27,0.33 0.56,0.65 0.86,0.95 0.3,0.3 0.62,0.59 0.95,0.86 0.33,0.27 0.67,0.52 1.02,0.76 0.71,0.46 1.46,0.87 2.25,1.19 0.78,0.33 1.6,0.58 2.43,0.74 0.42,0.09 0.84,0.15 1.26,0.19 0.43,0.05 0.86,0.07 1.28,0.07 0.42,0 0.85,-0.02 1.28,-0.07 0.42,-0.04 0.84,-0.1 1.26,-0.19 0.83,-0.16 1.65,-0.41 2.43,-0.74 0.79,-0.32 1.54,-0.73 2.25,-1.19 0.35,-0.24 0.7,-0.49 1.02,-0.76 0.33,-0.27 0.65,-0.56 0.95,-0.86 0.3,-0.3 0.59,-0.62 0.86,-0.95 0.27,-0.33 0.52,-0.67 0.76,-1.03 0.47,-0.7 0.87,-1.46 1.2,-2.24 0.32,-0.78 0.57,-1.6 0.74,-2.43 0.08,-0.42 0.14,-0.84 0.19,-1.26 0.04,-0.43 0.06,-0.86 0.06,-1.28 0,-0.43 -0.02,-0.86 -0.06,-1.28 -0.05,-0.42 -0.11,-0.849 -0.19,-1.26 z"
   id="path56" />
	<path
   d="M 431.694,143.96 409.408,75.705 c -2.207,-6.757 -6.912,-12.251 -13.25,-15.469 -6.337,-3.218 -13.549,-3.775 -20.307,-1.569 -6.757,2.207 -12.251,6.912 -15.469,13.25 -0.796,1.568 -1.428,3.189 -1.897,4.844 l -147.848,37.344 -104.387,26.38 c -30.502,7.696 -51.805,35.022 -51.805,66.452 0,4.79 0.513,9.55 1.508,14.226 l -11.454,4.036 C 39.915,219.479 32.877,215.806 24.993,215.806 11.212,215.805 0,227.017 0,240.798 c 0,13.781 11.212,24.993 24.993,24.993 13.781,0 24.993,-11.212 24.993,-24.993 0,-0.541 -0.023,-1.076 -0.057,-1.609 l 10.722,-3.778 c 1.442,3.177 3.117,6.222 5.015,9.126 L 51.88,253.65 c -2.101,1.389 -3.365,3.739 -3.365,6.257 v 18.934 c -23.305,3.621 -41.199,23.822 -41.199,48.125 0,26.856 21.849,48.705 48.705,48.705 25.142,0 45.893,-19.15 48.44,-43.629 h 134.993 c 8,25.264 31.663,43.629 59.539,43.629 34.43,0 62.44,-28.01 62.44,-62.44 0,-31.89 -24.035,-58.254 -54.938,-61.974 v -44.401 l 83.462,-33.703 c 1.356,1.061 2.825,1.998 4.394,2.794 3.789,1.924 7.889,2.896 12.019,2.896 2.778,0 5.571,-0.44 8.288,-1.328 13.948,-4.552 21.591,-19.606 17.036,-33.555 z M 24.993,250.791 c -5.51,0 -9.993,-4.483 -9.993,-9.993 0,-5.51 4.483,-9.993 9.993,-9.993 5.51,0 9.993,4.483 9.993,9.993 0,5.51 -4.483,9.993 -9.993,9.993 z m 356.131,-90.246 -39.318,15.876 -24.122,-73.88 41.111,-10.386 c 0.007,0.023 0.013,0.046 0.021,0.068 l 22.286,68.256 c 0.006,0.023 0.014,0.044 0.022,0.066 z m -236.554,31.835 -13.902,-42.593 76.854,-19.416 7.133,21.845 h -7.07 c -1.471,0 -2.909,0.433 -4.136,1.244 z m -72.458,31.222 c -1.77,-5.404 -2.667,-11.012 -2.667,-16.666 0,-24.549 16.644,-45.895 40.48,-51.909 l 6.166,-1.558 15.501,47.49 -53.415,35.308 c -2.544,-3.905 -4.584,-8.139 -6.065,-12.665 z M 56.021,360.671 c -18.585,0 -33.705,-15.12 -33.705,-33.705 0,-18.585 15.12,-33.705 33.705,-33.705 18.585,0 33.706,15.12 33.706,33.705 0,18.585 -15.121,33.705 -33.706,33.705 z m 47.686,-43.629 C 99.61,297.331 83.565,281.948 63.514,278.838 V 263.94 l 146.325,-96.723 h 23.055 c 3.257,11.251 13.646,19.503 25.932,19.503 12.286,0 22.675,-8.252 25.932,-19.503 h 6.736 v 84.041 c -30.905,3.718 -54.942,30.083 -54.942,61.974 0,1.281 0.051,2.549 0.127,3.811 H 103.707 Z m 143.12,-157.321 c 0,-6.616 5.383,-11.999 11.999,-11.999 6.616,0 11.999,5.383 11.999,11.999 0,6.616 -5.383,11.999 -11.999,11.999 -6.616,0 -11.999,-5.383 -11.999,-11.999 z m 99.606,153.51 c 0,26.159 -21.281,47.44 -47.44,47.44 -26.159,0 -47.44,-21.281 -47.44,-47.44 0,-26.159 21.282,-47.44 47.44,-47.44 26.158,0 47.44,21.282 47.44,47.44 z M 298.995,152.217 h -14.239 c -3.26,-11.246 -13.647,-19.495 -25.93,-19.495 -12.283,0 -22.67,8.248 -25.93,19.495 h -2.464 l -8.335,-25.528 81.009,-20.465 24.758,75.827 -21.37,8.629 v -30.963 c 10e-4,-4.143 -3.357,-7.5 -7.499,-7.5 z m 111.007,11.041 c -0.001,0 -0.001,0 0,0 -2.949,0.962 -6.096,0.719 -8.861,-0.685 -2.766,-1.404 -4.819,-3.801 -5.782,-6.749 L 373.035,87.429 c -0.911,-2.908 -0.66,-5.999 0.722,-8.722 1.404,-2.765 3.801,-4.818 6.75,-5.781 1.186,-0.387 2.404,-0.579 3.616,-0.579 1.801,0 3.591,0.424 5.244,1.264 2.765,1.404 4.818,3.801 5.781,6.75 l 22.286,68.255 c 1.988,6.086 -1.346,12.655 -7.432,14.642 z"
   id="path58" />
</g>
</svg>
